<svg xmlns="http://www.w3.org/2000/svg" width="300" height="250" viewBox="0 0 300 250"><defs><linearGradient id="bg" x1="0" y1="0" x2="1" y2="1"><stop stop-color="#003A66"/><stop offset=".72" stop-color="#0B5D91"/><stop offset="1" stop-color="#3FA9F5"/></linearGradient><filter id="shadow" x="-20%" y="-20%" width="140%" height="140%"><feDropShadow dx="0" dy="8" stdDeviation="10" flood-color="#003A66" flood-opacity=".22"/></filter></defs><rect width="300" height="250" fill="url(#bg)"/><g opacity=".22"><path d="M30 0 L108 250 M270 0 L192 250" stroke="#fff" stroke-width="16"/><circle cx="45" cy="30" r="22" fill="#fff"/><circle cx="255" cy="30" r="22" fill="#fff"/></g><g transform="translate(21.000000000000004 17.5)"><rect width="138" height="30.36" rx="4" fill="#fff" opacity=".96"/><text x="6.9" y="20.009999999999998" font-family="Arial, sans-serif" font-size="11.040000000000001" font-weight="800" fill="#003A66">Deutscher Fenstershop</text></g><g transform="translate(234 62.5)"><circle r="33" fill="#fff" stroke="#003A66" stroke-width="2.31"/><polygon points="0,-13.86 11.549999999999999,-3.96 7.26,10.56 -7.26,10.56 -11.549999999999999,-3.96" fill="#003A66" opacity=".92"/><path d="M-11.549999999999999 -3.96 L-25.740000000000002 -8.25 M11.549999999999999 -3.96 L25.740000000000002 -8.25 M-7.26 10.56 L-12.540000000000001 24.75 M7.26 10.56 L12.540000000000001 24.75" stroke="#003A66" stroke-width="1.98" stroke-linecap="round"/></g><text x="21.000000000000004" y="95" font-family="Helvetica,Arial,sans-serif" font-size="31.5" font-weight="800" fill="#fff">Ruhiges</text><text x="21.000000000000004" y="127.5" font-family="Helvetica,Arial,sans-serif" font-size="31.5" font-weight="800" fill="#fff">Heimspiel</text><text x="21.000000000000004" y="157.5" font-family="Arial,sans-serif" font-size="14.4" font-weight="700" fill="#EAF6FF">Public Viewing draußen. Ruhe drinnen.</text><rect x="21.000000000000004" y="175" width="144" height="40" rx="6" fill="#fff"/><text x="30" y="198.75" font-family="Helvetica,Arial,sans-serif" font-size="21.000000000000004" font-weight="900" fill="#F47C26">10 % Extra</text><g transform="translate(180 180)"><rect width="84.00000000000001" height="23.520000000000007" rx="4" fill="#fff" opacity=".94"/><text x="7.560000000000001" y="15.960000000000003" font-family="Arial, sans-serif" font-size="10.920000000000002" font-weight="900" fill="#003A66">DRUTEX</text></g><g transform="translate(21.000000000000004 222.5)"><rect width="116.28" height="24.75" rx="4" fill="#F47C26"/><text x="9" y="19.98" font-family="Arial, sans-serif" font-size="13.5" font-weight="800" fill="#fff">Jetzt anfragen</text></g></svg>