<svg xmlns="http://www.w3.org/2000/svg" width="160" height="600" viewBox="0 0 160 600"><defs><linearGradient id="bg" x1="0" y1="0" x2="1" y2="1"><stop stop-color="#003A66"/><stop offset=".72" stop-color="#0B5D91"/><stop offset="1" stop-color="#3FA9F5"/></linearGradient><filter id="shadow" x="-20%" y="-20%" width="140%" height="140%"><feDropShadow dx="0" dy="8" stdDeviation="10" flood-color="#003A66" flood-opacity=".22"/></filter></defs><rect width="160" height="600" fill="#F5F5F5"/><rect x="0" y="0" width="160" height="228" fill="url(#bg)"/><g opacity=".22"><path d="M16 0 L57.599999999999994 228 M144 0 L102.4 228" stroke="#fff" stroke-width="16"/><circle cx="24" cy="27.36" r="22" fill="#fff"/><circle cx="136" cy="27.36" r="22" fill="#fff"/></g><g transform="translate(19.2 30)"><rect width="121.6" height="26.752" rx="4" fill="#fff" opacity=".96"/><text x="6.08" y="17.631999999999998" font-family="Arial, sans-serif" font-size="9.728" font-weight="800" fill="#003A66">Deutscher Fenstershop</text></g><g transform="translate(80 168.00000000000003)"><circle r="28.799999999999997" fill="#fff" stroke="#003A66" stroke-width="2.016"/><polygon points="0,-12.095999999999998 10.079999999999998,-3.4559999999999995 6.335999999999999,9.216 -6.335999999999999,9.216 -10.079999999999998,-3.4559999999999995" fill="#003A66" opacity=".92"/><path d="M-10.079999999999998 -3.4559999999999995 L-22.464 -7.199999999999999 M10.079999999999998 -3.4559999999999995 L22.464 -7.199999999999999 M-6.335999999999999 9.216 L-10.943999999999999 21.599999999999998 M6.335999999999999 9.216 L10.943999999999999 21.599999999999998" stroke="#003A66" stroke-width="1.7279999999999998" stroke-linecap="round"/></g><text x="16" y="288" font-family="Helvetica,Arial,sans-serif" font-size="25.6" font-weight="800" fill="#003A66">Ruhiges</text><text x="16" y="336.00000000000006" font-family="Helvetica,Arial,sans-serif" font-size="25.6" font-weight="800" fill="#003A66">Heimspiel</text><text x="16" y="384" font-family="Arial,sans-serif" font-size="11.200000000000001" font-weight="700" fill="#333333">Public Viewing draußen.
Ruhe drinnen.</text><rect x="16" y="420" width="128" height="72" rx="8" fill="#fff" filter="url(#shadow)"/><text x="25.6" y="453" font-family="Helvetica,Arial,sans-serif" font-size="20.8" font-weight="900" fill="#F47C26">10 % Extra</text><text x="25.6" y="474" font-family="Arial,sans-serif" font-size="8.32" font-weight="800" fill="#003A66">auf ausgewählte Drutex Fenster</text><g transform="translate(25.6 504)"><rect width="80" height="22.400000000000002" rx="4" fill="#fff" opacity=".94"/><text x="7.199999999999999" y="15.2" font-family="Arial, sans-serif" font-size="10.4" font-weight="900" fill="#003A66">DRUTEX</text></g><g transform="translate(16 555)"><rect width="101.53600000000002" height="23.700000000000003" rx="4" fill="#F47C26"/><text x="10" y="18.4" font-family="Arial, sans-serif" font-size="11.200000000000001" font-weight="800" fill="#fff">Rabatt sichern</text></g></svg>