<svg xmlns="http://www.w3.org/2000/svg" width="728" height="90" viewBox="0 0 728 90"><defs><linearGradient id="bg" x1="0" y1="0" x2="1" y2="1"><stop stop-color="#003A66"/><stop offset=".72" stop-color="#0B5D91"/><stop offset="1" stop-color="#3FA9F5"/></linearGradient><filter id="shadow" x="-20%" y="-20%" width="140%" height="140%"><feDropShadow dx="0" dy="8" stdDeviation="10" flood-color="#003A66" flood-opacity=".22"/></filter></defs><rect width="728" height="90" fill="url(#bg)"/><g opacity=".22"><path d="M72.8 0 L262.08 90 M655.2 0 L465.92 90" stroke="#fff" stroke-width="21.84"/><circle cx="109.2" cy="10.799999999999999" r="25.480000000000004" fill="#fff"/><circle cx="618.8" cy="10.799999999999999" r="25.480000000000004" fill="#fff"/></g><rect x="14.56" y="12.600000000000001" width="160.16" height="64.8" rx="8" fill="#fff" opacity=".96"/><g transform="translate(25.480000000000004 25.200000000000003)"><rect width="123.76" height="27.2272" rx="4" fill="#fff" opacity=".96"/><text x="6.188000000000001" y="17.9452" font-family="Arial, sans-serif" font-size="9.9008" font-weight="800" fill="#003A66">Deutscher Fenstershop</text></g><g transform="translate(40.04 49.50000000000001)"><rect width="94.64" height="26.499200000000002" rx="4" fill="#fff" opacity=".94"/><text x="8.5176" y="17.9816" font-family="Arial, sans-serif" font-size="12.3032" font-weight="900" fill="#003A66">DRUTEX</text></g><g transform="translate(218.4 48.6)"><circle r="19.8" fill="#fff" stroke="#003A66" stroke-width="1.3860000000000001"/><polygon points="0,-8.316 6.93,-2.376 4.356,6.336 -4.356,6.336 -6.93,-2.376" fill="#003A66" opacity=".92"/><path d="M-6.93 -2.376 L-15.444 -4.95 M6.93 -2.376 L15.444 -4.95 M-4.356 6.336 L-7.524 14.850000000000001 M4.356 6.336 L7.524 14.850000000000001" stroke="#003A66" stroke-width="1.188" stroke-linecap="round"/></g><text x="283.92" y="34.2" font-family="Helvetica,Arial,sans-serif" font-size="27.9" font-weight="800" fill="#fff">Ruhiges Heimspiel</text><text x="283.92" y="58.5" font-family="Arial,sans-serif" font-size="16.2" font-weight="700" fill="#EAF6FF">Public Viewing draußen. Ruhe drinnen.</text><text x="538.72" y="38.7" font-family="Helvetica,Arial,sans-serif" font-size="25.200000000000003" font-weight="900" fill="#F47C26">10 % Extra</text><text x="542.36" y="57.6" font-family="Arial,sans-serif" font-size="12.600000000000001" font-weight="800" fill="#fff">auf ausgewählte Drutex Fenster</text></svg>