<svg xmlns="http://www.w3.org/2000/svg" width="1080" height="1350" viewBox="0 0 1080 1350"><defs><linearGradient id="bg" x1="0" y1="0" x2="1" y2="1"><stop stop-color="#003A66"/><stop offset=".72" stop-color="#0B5D91"/><stop offset="1" stop-color="#3FA9F5"/></linearGradient><filter id="shadow" x="-20%" y="-20%" width="140%" height="140%"><feDropShadow dx="0" dy="8" stdDeviation="10" flood-color="#003A66" flood-opacity=".22"/></filter></defs><rect width="1080" height="1350" fill="#F5F5F5"/><rect x="0" y="0" width="1080" height="742.5000000000001" fill="url(#bg)"/><g opacity=".22"><path d="M108 0 L388.8 742.5000000000001 M972 0 L691.2 742.5000000000001" stroke="#fff" stroke-width="32.4"/><circle cx="162" cy="89.10000000000001" r="37.800000000000004" fill="#fff"/><circle cx="918" cy="89.10000000000001" r="37.800000000000004" fill="#fff"/></g><g transform="translate(64.8 74.25)"><rect width="410.4" height="90.288" rx="4" fill="#fff" opacity=".96"/><text x="20.52" y="59.507999999999996" font-family="Arial, sans-serif" font-size="32.832" font-weight="800" fill="#003A66">Deutscher Fenstershop</text></g><g transform="translate(669.6 74.25)"><rect width="302.40000000000003" height="84.67200000000001" rx="4" fill="#fff" opacity=".94"/><text x="27.216" y="57.45600000000001" font-family="Arial, sans-serif" font-size="39.312000000000005" font-weight="900" fill="#003A66">DRUTEX</text></g><g transform="translate(842.4 499.5)"><circle r="113.39999999999999" fill="#fff" stroke="#003A66" stroke-width="7.938"/><polygon points="0,-47.62799999999999 39.69,-13.607999999999999 24.947999999999997,36.288 -24.947999999999997,36.288 -39.69,-13.607999999999999" fill="#003A66" opacity=".92"/><path d="M-39.69 -13.607999999999999 L-88.452 -28.349999999999998 M39.69 -13.607999999999999 L88.452 -28.349999999999998 M-24.947999999999997 36.288 L-43.092 85.05 M24.947999999999997 36.288 L43.092 85.05" stroke="#003A66" stroke-width="6.803999999999999" stroke-linecap="round"/></g><rect x="75.60000000000001" y="243" width="540" height="310.5" rx="16" fill="#fff" opacity=".96"/><text x="108" y="357.75" font-family="Helvetica,Arial,sans-serif" font-size="73.44000000000001" font-weight="800" fill="#003A66">Ruhiges</text><text x="108" y="465.74999999999994" font-family="Helvetica,Arial,sans-serif" font-size="73.44000000000001" font-weight="800" fill="#003A66">Heimspiel</text><text x="75.60000000000001" y="864" font-family="Arial,sans-serif" font-size="46.44" font-weight="700" fill="#333333">Public Viewing draußen. Ruhe drinnen.</text><text x="75.60000000000001" y="999" font-family="Helvetica,Arial,sans-serif" font-size="77.75999999999999" font-weight="900" fill="#F47C26">10 % Extra-Rabatt</text><text x="75.60000000000001" y="1093.5" font-family="Arial,sans-serif" font-size="43.2" font-weight="800" fill="#003A66">auf ausgewählte Drutex Fenster</text><g transform="translate(75.60000000000001 1181.25)"><rect width="350.49600000000004" height="65.7" rx="4" fill="#F47C26"/><text x="18" y="56.160000000000004" font-family="Arial, sans-serif" font-size="43.2" font-weight="800" fill="#fff">Jetzt anfragen</text></g></svg>